<?xml version="1.0" encoding="utf-8"?>
<!-- Generator: Adobe Illustrator 24.1.3, SVG Export Plug-In . SVG Version: 6.00 Build 0)  -->
<svg version="1.1" id="Layer_1" xmlns="http://www.w3.org/2000/svg" xmlns:xlink="http://www.w3.org/1999/xlink" x="0px" y="0px"
	 viewBox="0 0 1364 131" style="enable-background:new 0 0 1364 131;" xml:space="preserve">
<style type="text/css">
	.st0{fill:none;}
	.st1{opacity:0.25;fill:#7E184E;enable-background:new    ;}
	.st2{opacity:0.35;fill:#7E184E;enable-background:new    ;}
	.st3{fill:#7E184E;}
</style>
<g>
	<rect y="0" class="st0" width="1997" height="131"/>
	<path class="st1" d="M0,83.3c59.5,40.4,193,34.9,316.1-12.3c209-80.2,439.7-80.6,662.4-58.7c222.7,21.9,444.8,57.8,668.6,54
		c171.2-2.9,281.9-10.4,349.8-13.4c0,35.9,0,76.3,0,76.3L0,131V83.3z"/>
	<path class="st2" d="M308.7,46.9c264.7-57.7,453-19.6,686.9,6.8c284.7,32.2,563.3,62.9,862.1,33.3c93.9-9.3,119.3-19.6,139.3-19
		c0,32.2,0,62.9,0,62.9H0V65.1C0,65.1,152.5,81,308.7,46.9z"/>
	<path class="st2" d="M344.8,54.8c82.1-26.3,166.9-45.9,252.5-36.4c85.6,9.5,169.2,33.1,253.9,49.3c271.7,51.9,521.4,16.7,817.6,5
		c89.8-3.5,293.2-13.6,328.1-12.6c0,24,0,70.9,0,70.9H0V72.1C0,72.2,199.3,101.4,344.8,54.8z"/>
	<path class="st3" d="M1727.5,97c-288.4,18.5-588.6,17.2-871.3-16.8C744.6,66.8,640.1,42.1,527.8,39.5
		c-112.3-2.6-248.5,31-352.6,69.8C117.8,130.6,11,111.6,0,104.6c0,8,0,26.5,0,26.5h1997V73.1C1996.9,73.2,1849.5,89.1,1727.5,97z"/>
</g>
</svg>
