<?xml version="1.0" encoding="utf-8"?>
<!-- Generator: Adobe Illustrator 24.2.1, SVG Export Plug-In . SVG Version: 6.00 Build 0)  -->
<svg version="1.1" id="Layer_1" xmlns="http://www.w3.org/2000/svg" xmlns:xlink="http://www.w3.org/1999/xlink" x="0px" y="0px"
	 viewBox="0 0 1438 128" style="enable-background:new 0 0 1438 128;" xml:space="preserve">
<style type="text/css">
	.st0{clip-path:url(#SVGID_2_);}
	.st1{opacity:0.2;fill:#E7E7E7;enable-background:new    ;}
	.st2{opacity:0.4;fill:#E7E7E7;enable-background:new    ;}
	.st3{fill:#E7E7E7;}
</style>
<g>
	<g>
		<defs>
			<rect id="SVGID_1_" y="0" width="1440.2" height="128"/>
		</defs>
		<clipPath id="SVGID_2_">
			<use xlink:href="#SVGID_1_"  style="overflow:visible;"/>
		</clipPath>
		<g class="st0">
			<path class="st1" d="M1439.8,22.2c-249.2-0.6-377.8-4.7-632.8,4.4c-206.4,7.4-318.5,54-437.9,51.2C221.2,74.3,145.8,5-0.4,28.1
				v100.4l1440.2-0.5V22.2z"/>
			<path class="st1" d="M-0.2,46.1c181-30.8,317.7,38.6,359.9,52.3c39.4,12.8,88.2,12,134.4-5.3c111.1-41.6,227.1-70.9,342.2-67.5
				c115,3.4,233.7,22.4,348.7,19.7c95.8-2.3,218,1.7,254.1,3.7c0,21.3,0,80,0,80H-0.4L-0.2,46.1z"/>
			<path class="st2" d="M1440.2,41.2c-100.7-12.7-158.3-10.8-259.4-11.2c-205.6-0.8-351,18-530.1,51.1
				c-184.8,34.3-257,35.3-507.3-27.5C101.1,43,42.9,45.6-0.4,52.3V130h1440.2L1440.2,41.2z"/>
			<path class="st3" d="M1177.1,50.1C1037.5,62,912.9,75,767.3,100.1c-79.3,13.7-159.2,21.5-239.3,19.6
				C393.4,116.4,279.9,90,124.2,49.9c-88-22.6-124.4-4-124.4-4V130h1438.8V46C1438.4,46,1318.5,38.1,1177.1,50.1z"/>
		</g>
	</g>
</g>
</svg>
